<svg id="Layer_1" data-name="Layer 1" xmlns="http://www.w3.org/2000/svg" viewBox="0 0 1018 987"><defs><style>.cls-1,.cls-14,.cls-23{fill:#3a53a5;}.cls-1,.cls-10,.cls-13,.cls-14,.cls-18,.cls-19,.cls-2,.cls-20,.cls-21,.cls-22,.cls-23,.cls-24,.cls-3,.cls-4,.cls-5,.cls-6,.cls-7,.cls-8{stroke:#e5e1d1;}.cls-1,.cls-10,.cls-13,.cls-18,.cls-19,.cls-2,.cls-20,.cls-21,.cls-22,.cls-23,.cls-24,.cls-3,.cls-4,.cls-5,.cls-6,.cls-7,.cls-8,.cls-9{stroke-width:3px;}.cls-2{fill:#513159;}.cls-10,.cls-18,.cls-3{fill:#a380e5;}.cls-21,.cls-4{fill:#c361db;}.cls-10,.cls-13,.cls-4,.cls-5,.cls-6,.cls-7,.cls-9{stroke-miterlimit:10;}.cls-11,.cls-22,.cls-5{fill:#ce305d;}.cls-19,.cls-6{fill:#3c9eb5;}.cls-12,.cls-20,.cls-7{fill:#51afa8;}.cls-13,.cls-24,.cls-8,.cls-9{fill:none;}.cls-9{stroke:#ce305d;}.cls-14{stroke-width:2px;}.cls-15{fill:#e5e1d1;}.cls-16{fill:#f7c98b;}.cls-17{fill:#fff;}.cls-18,.cls-19,.cls-20,.cls-21,.cls-22,.cls-23,.cls-24{stroke-linejoin:bevel;}</style></defs><path class="cls-1" d="M184,477.1a10.51,10.51,0,1,1-10.5-11A10.76,10.76,0,0,1,184,477.1Z"/><path class="cls-2" d="M245.26,373.82c-27.58,38.95-29.6,72-54.76,104.14,7.83,7.1,12.18,11.84,19.77,24,72-16.07,130.32-9.19,150.6-52.25,5.58-21.77-19.77-39.34-4.57-58.89,30.43-39.1,51.81-88,34.7-90.36C340.3,293.57,294,305,245.26,373.82Z"/><path class="cls-2" d="M308,490.39c-52,14.57-75.11,23.83-97.5,14,4.81,9.42,6.74,14.81,8.5,24.67,11.26,17.18,18,26.94,21.5,41.83,37.59,57.49,95.5,75,104,64s-.5-20.5,4.5-41.5,11-32.33,20.5-53.33C380,504.39,349,480.06,308,490.39Z"/><path class="cls-3" d="M213.45,533.82c-16.71-11.19-24.7-21.74-37.5-45,5.75-3.18,8-6.24,8.5-16,21.47,18.35,29.46,30.72,34.5,57.5,16.21,20.3,20.8,32.51,22.5,55.5C216.69,573.14,211,561.51,213.45,533.82Z"/><path class="cls-4" d="M203.39,477.1c-2.43-3,10.81-21.7,14.7-30.89,8.07-19.08,28.43-60.53,42.67-78.07a127.31,127.31,0,0,1,41.87-38.84c9.19-5.19,17.87-8.26,24.1-3.86,16.18,11.44-73.38,106-85.28,121.56C237.49,452.18,207,481.51,203.39,477.1Z"/><path class="cls-5" d="M235,480.63c11.26-4.26,81.34-47.16,87.48-87.31a9.17,9.17,0,0,0-5-9.5c-9.23-4.59-49.15,44-56,52.47-1.28,1.6-30.51,32.06-31.77,33.1-12.4,10.22-22.08,15.28-21.18,17.21C209.52,488.82,223.81,484.85,235,480.63Z"/><path class="cls-6" d="M218.09,493.5c.59,2.45,82.67-13.93,97.64-17.31s31.71-14.51,30-21.79c-1-4.17-12.59-10-17-14.46s-7.29-12.1-12.27-12.1-8.17,4.66-20.12,18.9c-8.52,10.17-29.84,24.8-53,36.77C232.24,489.24,217.5,491.05,218.09,493.5Z"/><path class="cls-7" d="M332.58,396.89c-5.25-1.85-4.38-31.13,6.31-34.69a9.76,9.76,0,0,1,10.51,3.68C355.49,375.31,337.83,398.74,332.58,396.89Z"/><path class="cls-7" d="M355,358.11c.79.1,1.84-.19,4.23-2.78,10.36-11.27,16.16-33.52,7.34-40.31a12.36,12.36,0,0,0-13.25-.54C340.71,322.25,348,357.18,355,358.11Z"/><path class="cls-7" d="M337.17,412.42c8.47,2.66,16.59,30.18,11.23,29.46s-17-6.51-20.22-17.59S328.69,409.76,337.17,412.42Z"/><path class="cls-4" d="M239.65,530.33C238.48,535.67,257,565,285.1,579.51c14.06,7.29,38.31,17.92,51,9.22,12.06-7.76,16.21-29.17,8.41-40.39-5.76-8.26-18-12.23-39.47-11.81C274.2,537.13,241.45,522.06,239.65,530.33Z"/><path class="cls-5" d="M253,539.87c.27-4,15.85,2.15,24.83,3.13,13.66,1.48,26.57,1.12,39.63,3.15,23,3.57,21.25,34.38,0,34.38-9.39,0-15.26-.58-33.89-11.65S252.9,541.88,253,539.87Z"/><path class="cls-7" d="M243.31,516.28c-.24-3.87,12.4-1.47,37.36-9.19,20-6.17,37.2-11.41,48.26-10.18,17.29,1.93,22.57,7.94,19.54,20.81C342.8,541.88,243.73,523.17,243.31,516.28Z"/><path class="cls-6" d="M240.83,549.89c-3.93,1.06,9.34,23.84,15.84,31.58,2.64,3.14,20,24.65,40.08,32.21,3.47,1.31,20,5.49,17.54-9.63-1.79-10.95-33.38-10.17-57.74-35.21C246.49,558.51,244.76,548.84,240.83,549.89Z"/><path class="cls-1" d="M364,602.15c5-21,11-32.33,20.5-53.33,9.79-24.86,17.66-26.83,11-43.35-7.14-17.68-36.56-12.43-56-16.11C348.5,491,369.55,503.5,369.55,525c0,12.5-5.54,22.92-12.55,38.32-8.09,16.14-9,25.68-9.55,41s1.79,21.5-3.5,28.5-13.11,6.56-34.55-1.43c23,11.89,45.88,17.65,50.05,12.26C368,632.65,359,623.15,364,602.15Z"/><path class="cls-1" d="M368.78,399.19c-.63-21.59,19-32.3,36.53-58.25,15.18-22.53,11.68-36.55-4.15-44.92-21.84-11.54-79.16,10.4-84.15,12.9,27.92-9.38,60.49-11.4,64.49,11.6,2.43,14-9,40.5-21.7,57.59-14.47,19.48-15,23-7.95,39.85,13.26,31.91,6.07,46-21.55,60.27,23.87-11,37.85-17.84,45.52-36.31S369.41,420.78,368.78,399.19Z"/><path class="cls-8" d="M182.5,501.88c9.4-2.9,13-5.84,17-13"/><path class="cls-8" d="M191.5,512.88c9.4-2.9,13-5.84,17-13"/><path class="cls-8" d="M201.5,523.88c7.19-2.46,9.94-4.94,13-11"/><path class="cls-8" d="M212.5,548.88c8.29-1.56,11.47-3.15,15-7"/><path class="cls-8" d="M216.5,562.88c10.51-1.56,14.53-3.15,19-7"/><path class="cls-8" d="M224.5,574.88c8.29-1.34,11.47-2.7,15-6"/><path class="cls-8" d="M169.5,466.07C157.5,456.45,148,449,125.84,453c-8.81,1.61-19.34,8.71-19.34,25.05s19.28,20,26.53,11.43c4.84-5.71,3.31-19.06,0-19.06"/><path class="cls-8" d="M163.5,481.07C151.5,471.45,142,464,119.84,468c-8.81,1.61-19.34,8.71-19.34,25.05s19.28,20,26.53,11.43c4.84-5.71,3.31-19.06,0-19.06"/><path class="cls-9" d="M395.9,175.54c3.27-10.71.46-21.94-7.14-28.2-10.32-8.52-27.45-6.17-30.92,0-.71,1.26-1.1,3.12-1.36,3.06-.55-.12,2.33-7.94.34-15.29-2-7.57-9.49-11.38-10.53-11.89a23.06,23.06,0,0,0-27,5.59c-9.29,10.87-3,26.62.49,30.09.51.51,1.84,1.81,3.28,1.56a4.09,4.09,0,0,0,2.84-4.28c-.77-3.61-11.54-7.12-17.33-3.06-7.27,5.09-5.21,21.08,1,24.13,2.11,1,5.13.8,6.7-.81,3.05-3.13.34-11.21-3.64-15.84-5.58-6.5-16.55-9.69-22.43-5.78-9.2,6.13-5.87,32,7.14,41.8,1.46,1.1,7.76,5.84,12.3,3.42,3.55-1.89,5.36-7.81,3.33-10.22-1.68-2-5.61-1.15-7.82-.68-4.43,1-8.17,3.18-12.23,6.8-8.32,7.4-7.7,11.44-14.61,15.29-2.34,1.3-6.87,3.83-10.24,1.85-2.82-1.66-4.13-6.09-2.87-9,2.11-4.92,11.39-5.88,18-4.51,8.49,1.76,9.16,6.28,19.91,12.72,4.17,2.5,16.94,10.16,25.82,5.1,4.29-2.45,7.79-7.93,7.48-13.25-.55-9.2-12.08-11.1-11.89-19.37.06-2.61,2.93-6.54,8.48-14.52,4.88-7,5.17-6.2,6.47-8.93,3.9-8.22,3.31-20-2.38-23.45-2.26-1.37-5.57-1.58-7.32-.06-2.46,2.14-1.43,7.36.53,10.6,1.7,2.81,3.83,3.7,7.14,5.78,4.25,2.67,13.95,8.76,16.31,17.67.37,1.38,1.49,5.61-.68,7.82-2.35,2.39-8.09,1.92-9.85-.68-3.22-4.77,4.08-19.89,16.31-23.45,7.84-2.28,20-.48,23.45,8.16,2.76,6.94-1.08,15.86-7.16,19.21-3.37,1.86-8.6,2.65-10.17.5-1.72-2.34,1.31-7.62,4.47-10.49.4-.36,7.49-6.61,14.55-3.44,6.9,3.09,9,13,5.78,18-2.07,3.22-6.8,5.1-7.81,4.08-.56-.56,0-2.06.68-3.4,7.77-6.26,17.75-7.94,25.49-4.08,7.38,3.68,10,11,10.87,13.59.29.81,5,14.75-3.06,23.79a22.42,22.42,0,0,1-9.85,6.12,13,13,0,0,1-5.78.68c-5.53-.8-9-5.63-9.17-5.44s3.9,3.25,5.78,7.48c3.79,8.52-2.66,18.76-3.06,19.37-5.51,8.5-16.64,12.78-28.54,11.55"/><path class="cls-9" d="M277.31,235c-.44,1-5.54,13.59,1.36,23.45,8.27,11.82,27.95,11.37,33.64,4.76,1.69-2,2.79-5.21,3.06-5.1s-1.28,3.46-2,8.16c-.44,2.7-.79,4.91-.34,7.14,1.11,5.49,6.63,8.61,8.83,9.85,9.11,5.15,18.74,2.34,19.71,2,5.7-1.76,14.43-6.7,16-14.61,1.85-9.52-7.58-18.94-6.12-20,1.15-.87,5.52,6.13,11.55,5.78,4.36-.25,8.38-4.27,9.51-8.5,2.14-8-5.74-17.41-11.55-16.65-3.24.42-6,4-6.46,7.48-1,7.13,8.14,11.88,8.83,12.23,7.12,3.59,17.67,2.51,22.43-4.08,3.46-4.78,2.46-10.54,1.67-15.12-2-11.3-9.79-17.5-13.22-20.22-4.13-3.27-6.31-3.54-7.82-3.4-3.29.32-7.05,3-7.48,6.8a7.9,7.9,0,0,0,2.38,6.12c3.5,3.37,9.63,2.71,13.25.34.5-.33,1.39-1,5.17-6.39,3.24-4.64,3.81-5.91,5-7.58,4-5.49,12.32-11.73,17.69-9.3,2.76,1.25,4.91,4.86,4.06,7.3-1.41,4.06-11.21,4.91-18.69,3.06-3.51-.87-4.86-1.93-13.25-7.14-17.37-10.79-21.56-12.45-26.18-11.5a15.8,15.8,0,0,0-7.8,4.37c-5.77,5.66-3.87,9.73-3.87,9.73,2.51,6.28,3.83-1,7.27.12,4.34,1.37,6.08,7.23,6.46,8.5,3.61,12.15-6.57,26.51-10.07,31.45a53.1,53.1,0,0,0-6.24,10c-2.21,4.85-4.33,9.68-2.38,14.27,1.17,2.75,4.21,6.4,8.16,6.12,4.67-.34,7.93-6,7.14-9.85-.49-2.36-2.44-3.74-4.42-5.1-15.79-10.85-18-12-20.39-15.29-3.08-4.34-5.38-11.1-2.72-14.61a7,7,0,0,1,4.76-2.38,7.49,7.49,0,0,1,7.14,4.08c1.74,4-2.55,9-4.42,11.21-7.23,8.42-23.2,16.93-33,9.85-4.65-3.37-7.76-10.19-6.12-16.31,2.45-9.12,14.72-13.92,18.35-11.21,1.85,1.38,1.61,4.84,1,6.79-1.43,4.59-6.68,6.64-10.25,6.94-7,.59-15.47-4.92-15.22-11.35.21-5.65,7.07-10.28,8.16-9.51.81.57-.51,5-3.06,7.48-5.87,5.81-20.59,4.15-28.54-4.08-9.22-9.54-8.47-27,0-34.32,4.54-3.91,10.74-4.39,11.21-4.42,7.05-.46,13.52,3.26,13.59,3.06s-1.44-.58-2.72-1.36c-3.89-2.37-5.16-7-5.78-9.17-2.07-7.44-.46-18.33,7.14-25.49a21,21,0,0,1,10.83-5.8c9.33-1.68,16.53,4.13,17.71,5.12"/><path class="cls-7" d="M210.19,358.52c8.82-6.08,19.3-9.73,19.17-11.21s-4.51-1.12-11.56-.61-35.54,8.15-30,18.34C192,372.66,201.38,364.61,210.19,358.52Z"/><path class="cls-7" d="M270.46,274c-10.68-4.56-15.51,24.54-15.34,31.6s.24,11.46,1.73,11.44,4.1-10.79,9.3-20.16S278.45,277.37,270.46,274Z"/><path class="cls-4" d="M229.35,340.37c-.62,3.49-13.17-3.58-27.64,3.37s-27.76,10.84-29,0c-1.35-11.52,9.92-12.6,17.38-13.1,11.92-.81,25.76,3,29.79,4.56C224,336.77,229.55,339.22,229.35,340.37Z"/><path class="cls-4" d="M243.88,308.67c-1.93-3.85-7.08-17.26-7.44-29.2-.22-7.48-.24-18.79,11.35-18.57,11,.21,8.37,13.81,2.86,28.89s2.74,26.88-.67,27.83C248.86,317.94,245.89,312.69,243.88,308.67Z"/><path class="cls-10" d="M185.3,323c8.89-.4,19.55.09,29.34,3.88,4,1.55,16.17,7.28,17.18,6.18.86-.93-.86-2.72-3.92-5.18-9.69-7.77-21.62-13.71-35.35-19.09s-22.86-7.41-26.33,1.59C165.17,313.15,166.27,323.88,185.3,323Z"/><path class="cls-10" d="M214,257.72c-8.62,4.33-5.71,13.22,1,26.36s13.76,24.44,22.44,33.33c2.74,2.81,4.69,4.35,5.53,3.4,1-1.11-5.89-12.66-7.82-16.5-4.72-9.38-6.24-19.93-6.71-28.83C227.43,256.46,216.65,256.41,214,257.72Z"/><path class="cls-6" d="M172.28,268c-4.82,5.31-.45,12,12.82,23.48,11.72,10.16,23.15,16.48,36.26,25.36,7.86,5.34,13.61,11.13,15.17,9.44s-4.79-6.88-10.87-14.18c-10.12-12.18-17.52-23-28.76-33.62C184.16,266.38,177.1,262.68,172.28,268Z"/><path class="cls-10" d="M205,376.77c-3.65,3.15-3.09,9.25.3,12.26a8,8,0,0,0,9.09,1.06c4-2.39,5-8.79,1.69-12.47A8.2,8.2,0,0,0,205,376.77Z"/><path class="cls-11" d="M430.41,141.68c-6.37-6.85-10.81-8-20.59-4.11,8.15-10,13.54-14.46,30.39-11.78l7.26,7,9.32,7C448.52,144.66,442.88,145.35,430.41,141.68Z"/><path class="cls-11" d="M493.86,148.21a46.82,46.82,0,0,1-20.78-14.44c10.92-8.5,16.27-8.09,22.54-3.06,5.12,5.79,8.64,8.7,22.06,5.42C512.89,143.69,507.55,149.23,493.86,148.21Z"/><path class="cls-12" d="M462.23,189.83c-24.49-19.67-1.72-30.51,2.21-44.94C484.73,170.88,454.8,171.52,462.23,189.83Z"/><path class="cls-12" d="M456.77,106.65c-3,10.64-1.44,15,4.43,21.28l2.43-7.39,6.48-6.64,4.41-6.77,1.86-9.31-2.95-8.24-8.83-6.86.89,8.34Z"/><path class="cls-13" d="M462.14,137.55a19.28,19.28,0,0,1-.3-12.28,17,17,0,0,1,1.13-2.65c2.86-5.55,7.33-6.51,9.53-9.94A21.58,21.58,0,0,0,475.27,96C472.8,86.5,463.88,81.22,463,82c-.47.38,1.65,2.16,2.22,5.51,1.3,7.46-6.66,10.93-9,20.34-2.16,8.71,1.41,19.11,6.35,20.52,2.45.69,5.34-.8,8.95-2.66A36.25,36.25,0,0,0,478,121.1c5.42-4.73,5.92-12.88,6-14.49.87-14-12.8-23.27-13.41-23.67"/><path class="cls-13" d="M470.6,82.94a22.86,22.86,0,0,1,23.74,14.69c1,2.7,4.22,11-.56,17.67a15.46,15.46,0,0,1-8.59,5.74,22.07,22.07,0,0,0-2.9.58c0,.34,6.59-1.43,12.11,1.53,3.91,2.09,3.35,4.45,7.84,6.49a12.4,12.4,0,0,0,8.14,1.08,10.69,10.69,0,0,0,5.49-3.22,11.05,11.05,0,0,0-7.94-18.29c-4.8-.18-7.84,3.56-8,3.79-.63.79-2.81,3.47-2.12,6.58.92,4.1,6.39,7.08,9.7,5.43a5,5,0,0,0,2.69-5.39,4.22,4.22,0,0,0-3.69-3.16,4.43,4.43,0,0,0-3.62,2"/><path class="cls-13" d="M482.37,179.29c-1.27,1.51-3,2.11-4.34,1.56a3.67,3.67,0,0,1-1.87-2.8c-.45-2.94,2.36-6.8,6.08-7.32a7.42,7.42,0,0,1,7.09,3.56c2.42,4.08-.38,9.63-3.31,12.46-3.3,3.17-9.53,5.59-14,2.6s-5.05-9.61-3.17-13.83c2.55-5.71,9.26-5.66,10.25-10.88.71-3.73-2.08-7-1.51-7.31.77-.46,3.81,6.76,10.36,10.14,4.36,2.25,11,3.18,16.06.51,10.29-5.37,11.79-24,11.28-24.15a10.55,10.55,0,0,0-.88,1.71c-2.25,4.31-9.8,14.4-20.5,13.69-7-.47-13.47-5.45-15.64-10.2a29.22,29.22,0,0,0-2-4.09c-2.88-4.78-5.34-5.19-5.6-7.05-.59-4.25,10.89-13,20.15-10.52,7.34,2,8.12,9.7,15.44,10.35,5.64.5,10.15-3.63,11-2.39.71,1-2.06,4.65-4.15,6.69,0,0-.42.41-.81.75-2.43,2.1-8.79,5.69-13.37,6.14-11,1.07-23.67-14.86-28.56-14.85a14.26,14.26,0,0,0-5.69,1.56,26.85,26.85,0,0,0-2.53,1.92c-2.15,1.65-6.92,0-8.37-.46l-.1,0a18.27,18.27,0,0,1-3.25-1.57c-1.76-1.12-4.34-4.4-6.06-6.05a17.94,17.94,0,0,0-8.81-4.45,19.64,19.64,0,0,0-10.1.68c-9.5,2.81-16.34,10.78-15.38,12.29.83,1.28,6.43-3.69,13.27-1.67,4.31,1.27,4.29,3.9,9.79,6.26a22.44,22.44,0,0,0,11.5,1.76,24.87,24.87,0,0,0,13.17-6.16s-.4-8.92-9.45-16.52h0a31.64,31.64,0,0,0-5.46-3.88,24.27,24.27,0,0,0-8.62-2.42c-10.71-.84-21.92,16.52-23.3,15.55-1.54-1.07,6.74-26.28,21.73-26.59,3.75-.08,10.86,1.35,14.37,6.32,1.63,2.33,2.57,5.56,2.95,5.43s-.39-2-.42-4.66a18,18,0,0,1,2.36-8.75c1.65-3.06,2.49-2.63,4.74-6.54s2.14-5.67,2.06-6.32a8.18,8.18,0,0,0-2.33-4.5c-.51-.58-3.77-4.33-8.66-3.88-5.67.53-8.14,6.22-8.34,6.69-.29.7-2.18,5.26.37,9a7.26,7.26,0,0,0,5.54,3.26c.32,0,3.55,0,5.19-2.48,1.52-2.32,1.2-6-.85-7.16-1.33-.73-3.63-.48-4.51,1a3.26,3.26,0,0,0-.21,2.39"/><path class="cls-13" d="M464.16,145c1.91,1.4,6.77,5.4,7.69,11.77.77,5.26-1.49,9.75-2.8,12.37-3.26,6.5-6.74,7.14-7.56,12.23-.77,4.82,1.75,7.87.74,8.5-1.43.87-7.72-4.32-10.11-11.45a22.05,22.05,0,0,1-.11-12.95C455.07,155.12,463.82,153.07,464.16,145Zm0,0a13.57,13.57,0,0,0-2-7.41"/><path class="cls-13" d="M423.25,157a4.33,4.33,0,0,1-3.47-1.49,4.28,4.28,0,0,1,.51-5.29c2-2,6.44-1,8.34,1.4,2.42,3.09.69,8.55-2.38,10.57C422,165,414.2,161.82,411.79,156s1.07-13.32,5.95-14.67a8.54,8.54,0,0,1,7.23,1.39c.95.82.95,1.37,2.47,2.71a14.72,14.72,0,0,0,4,2.54,15.77,15.77,0,0,0,4.71,1.08c5,.5,8.53-.58,8.64-.16s-1.87,1.06-2.34,1.26c-5.19,2.13-11.75,11.45-10.07,21.86,1.94,12.09,13.62,17.08,19.31,18.08,1.52.27,4.35.56,4.58-.13.31-1-4.95-2.4-8.5-6-7-7.07-4.46-19.58-4.32-20.26,3-13.78,16.81-19.18,17.92-19.59"/><circle class="cls-14" cx="498.2" cy="185.27" r="4"/><circle class="cls-14" cx="509.13" cy="99.76" r="4"/><circle class="cls-14" cx="412.68" cy="169.24" r="4"/><circle class="cls-14" cx="430.48" cy="85.1" r="4"/><path class="cls-15" d="M587,607.43v-1.86a.5.5,0,0,1,.57-.57h2V585.28h-2a.5.5,0,0,1-.57-.57v-1.94c0-.41.19-.61.57-.61q4.56-.2,8.66-.19a11.72,11.72,0,0,1,6.54,1.6,5,5,0,0,1,2.47,4.48,5.6,5.6,0,0,1-1.33,3.72,7.69,7.69,0,0,1-3.08,2.28,7.26,7.26,0,0,1,4.45,2.17,6,6,0,0,1,1.56,4.18,6.51,6.51,0,0,1-2.4,5.24,10.83,10.83,0,0,1-6.34,2.25c-1.09.07-2.84.11-5.25.11h-5.32A.5.5,0,0,1,587,607.43Zm6.84-11.4v9h1.71A10.36,10.36,0,0,0,600.7,604a3.89,3.89,0,0,0,1.86-3.69q0-4.29-6-4.29Zm0-11v7.83h1.45q5.63,0,5.62-3.92a3.28,3.28,0,0,0-1.37-3,7.31,7.31,0,0,0-3.91-.87Zm24,23.41q-4.51,0-6.65-2.63a11,11,0,0,1-2.09-7,11.3,11.3,0,0,1,2.25-7.22,7.72,7.72,0,0,1,6.46-2.85,7.47,7.47,0,0,1,3.57.8,5.47,5.47,0,0,1,2.31,2.09,11.48,11.48,0,0,1,1.52,6,4.71,4.71,0,0,1-.15,1.74.81.81,0,0,1-.57.16H613.35a7.93,7.93,0,0,0,1.33,4.25c.79,1,2.13,1.48,4,1.48a10.58,10.58,0,0,0,4.29-1,.48.48,0,0,1,.76.3l.72,1.75c.13.3,0,.56-.34.76A13,13,0,0,1,617.87,608.46Zm-4.52-11.75h7.91c0-3.16-1.2-4.75-3.73-4.75a3.54,3.54,0,0,0-3.19,1.45A6.38,6.38,0,0,0,613.35,596.71Zm19.31-7,4.45,13.83,3.95-11.24h-1.94a.5.5,0,0,1-.57-.57v-2a.5.5,0,0,1,.57-.57h5.55a.63.63,0,0,1,.61.27,1,1,0,0,1,.15.49,1,1,0,0,1-.07.38l-8.14,21.24a21,21,0,0,1-1,2.21,8.84,8.84,0,0,1-1.1,1.67,5.13,5.13,0,0,1-4.15,1.67,10.35,10.35,0,0,1-4.48-.84c-.2-.1-.3-.22-.3-.38a1.46,1.46,0,0,1,0-.34l.65-1.86c.1-.33.34-.44.72-.34a10.12,10.12,0,0,0,3,.61,2.43,2.43,0,0,0,1.78-.61,6.41,6.41,0,0,0,1.33-2.43l.95-2.51-5.78-16.11H627a.5.5,0,0,1-.57-.57v-2a.5.5,0,0,1,.57-.57h5A.68.68,0,0,1,632.66,589.72Zm14.77,9.16a12.79,12.79,0,0,1,.87-4.94,7.51,7.51,0,0,1,2.28-3.15,10,10,0,0,1,9.77-1.3,7.43,7.43,0,0,1,2.47,1.68,7.3,7.3,0,0,1,1.52,2.73,12.31,12.31,0,0,1,.65,4.18c0,3.4-.87,6-2.59,7.75a8.7,8.7,0,0,1-6.53,2.63,8.14,8.14,0,0,1-6.24-2.4Q647.42,603.63,647.43,598.88Zm8.74,6.46a3.61,3.61,0,0,0,3.31-1.67,9.81,9.81,0,0,0,1.06-5.06,9.55,9.55,0,0,0-1.06-5,3.65,3.65,0,0,0-3.39-1.71q-4.37,0-4.37,6.15C651.72,602.91,653.21,605.34,656.17,605.34Zm11.1-13.57v-2a.5.5,0,0,1,.57-.57H673c.33,0,.53.19.61.57L674,592a6.9,6.9,0,0,1,6.08-3.19q5.9,0,5.89,6.46V605h2.21a.5.5,0,0,1,.57.57v1.86a.5.5,0,0,1-.57.57h-8.29a.5.5,0,0,1-.57-.57v-1.86a.5.5,0,0,1,.57-.57h1.83v-7.87a7.62,7.62,0,0,0-.61-3.49,2.61,2.61,0,0,0-2.51-1.11,4.48,4.48,0,0,0-3.15,1.14,3.42,3.42,0,0,0-1.26,2.59V605h2.36a.5.5,0,0,1,.57.57v1.86a.5.5,0,0,1-.57.57h-8.63a.5.5,0,0,1-.57-.57v-1.86a.5.5,0,0,1,.57-.57h2V592.31h-2.06Q667.27,592.31,667.27,591.77ZM708.07,605h1.63a.5.5,0,0,1,.57.57v1.86a.5.5,0,0,1-.57.57h-4.29q-.49,0-.57-.57l-.31-2.24a6.65,6.65,0,0,1-6.19,3.27,7.21,7.21,0,0,1-5.74-2.32q-2-2.35-2-7.26t2.32-7.52a7.78,7.78,0,0,1,6-2.59,6.54,6.54,0,0,1,3,.65,4.61,4.61,0,0,1,1.9,1.48v-8.09h-2a.5.5,0,0,1-.57-.57v-2a.5.5,0,0,1,.57-.57h5.7a.5.5,0,0,1,.57.57Zm-4.26-4.14v-6.69a4.42,4.42,0,0,0-1.75-1.41,5.2,5.2,0,0,0-2.47-.64c-3.14,0-4.71,2.12-4.71,6.38q0,4.9,2.13,6.12a5,5,0,0,0,2.51.53,4.28,4.28,0,0,0,2.92-1.18A3.87,3.87,0,0,0,703.81,600.86Zm23.57-15.58V605h7.94l-.15-2.66a.47.47,0,0,1,.53-.57h2.13a.5.5,0,0,1,.57.57v7.48a.5.5,0,0,1-.57.57H735.7a.47.47,0,0,1-.53-.57l.11-1.82H721.11a.5.5,0,0,1-.57-.57v-1.86a.5.5,0,0,1,.57-.57h2V585.28h-2a.5.5,0,0,1-.57-.57v-1.94a.5.5,0,0,1,.57-.57h9a.5.5,0,0,1,.57.57v1.94a.5.5,0,0,1-.57.57Zm21.67,23.18q-4.51,0-6.65-2.63a11,11,0,0,1-2.09-7,11.3,11.3,0,0,1,2.25-7.22,7.72,7.72,0,0,1,6.46-2.85,7.47,7.47,0,0,1,3.57.8,5.55,5.55,0,0,1,2.32,2.09,11.57,11.57,0,0,1,1.52,6,4.36,4.36,0,0,1-.16,1.74.81.81,0,0,1-.57.16H744.53a7.93,7.93,0,0,0,1.33,4.25c.79,1,2.13,1.48,4,1.48a10.55,10.55,0,0,0,4.29-1,.48.48,0,0,1,.76.3l.73,1.75c.12.3,0,.56-.35.76A13,13,0,0,1,749.05,608.46Zm-4.52-11.75h7.91c0-3.16-1.19-4.75-3.73-4.75a3.54,3.54,0,0,0-3.19,1.45A6.38,6.38,0,0,0,744.53,596.71Zm31.67-4.4V605.8c0,1.62-.07,3.12-.19,4.52a7.18,7.18,0,0,1-2.4,5,8.6,8.6,0,0,1-5.85,1.79,15.8,15.8,0,0,1-6.38-1.14c-.31-.13-.41-.38-.31-.76l.69-2c.1-.36.35-.46.76-.31a12.26,12.26,0,0,0,4.67,1,4.94,4.94,0,0,0,3.57-1.14c.79-.76,1.18-2.1,1.18-4v-3a5.85,5.85,0,0,1-5.4,2.74,7,7,0,0,1-5.7-2.4q-1.94-2.38-1.93-7.26c0-3.26.76-5.75,2.28-7.44a7.41,7.41,0,0,1,5.77-2.59,7.06,7.06,0,0,1,5.63,2.47l.38-1.48a.69.69,0,0,1,.68-.57h4.64a.5.5,0,0,1,.57.57v2a.5.5,0,0,1-.57.57Zm-4.26,8.58v-6.76a4.76,4.76,0,0,0-.49-.57,5,5,0,0,0-1.41-.87,4.83,4.83,0,0,0-2.32-.57,4,4,0,0,0-3.27,1.52c-.83,1-1.25,2.58-1.25,4.78a11.18,11.18,0,0,0,.91,5.06q.92,1.71,3.54,1.71a4.29,4.29,0,0,0,3-1.18A4,4,0,0,0,771.94,600.89Zm19.77-4.18v-1.33c0-1.79-.5-2.92-1.52-3.38a5.67,5.67,0,0,0-2.09-.3,2.85,2.85,0,0,0-3.11,2.43q-.12.57-.57.57H782c-.4,0-.58-.19-.53-.57a4.77,4.77,0,0,1,2.24-4.07,10,10,0,0,1,5.32-1.29q6.81,0,6.81,6.23v10h1.63a.5.5,0,0,1,.57.57v1.86a.5.5,0,0,1-.57.57H793q-.5,0-.57-.57l-.27-1.75a6.92,6.92,0,0,1-5.93,2.78,6.32,6.32,0,0,1-4-1.26,5,5,0,0,1-1.59-4.1,5,5,0,0,1,3.08-5.06,15.73,15.73,0,0,1,6.08-1.29C790.22,596.75,790.88,596.74,791.71,596.71Zm.08,5.55v-2.92a16.6,16.6,0,0,0-4.49.34c-.55.23-1,.45-1.48.68a2.43,2.43,0,0,0-1.21,2.36c0,1.75,1,2.62,3,2.62a4.71,4.71,0,0,0,3.08-.91A2.84,2.84,0,0,0,791.79,602.26Zm13.05-3.91q0,6.92,5.36,6.91a10,10,0,0,0,4-1,.54.54,0,0,1,.79.34l.69,1.67a.6.6,0,0,1-.31.8,11.07,11.07,0,0,1-5.85,1.41c-3.06,0-5.33-.87-6.8-2.59a10.63,10.63,0,0,1-2.2-7.07,11.15,11.15,0,0,1,2.24-7.25q2.28-2.77,6.76-2.78a6.4,6.4,0,0,1,5.06,1.86,7,7,0,0,1,1.63,4.75c0,.33-.22.5-.65.5h-2.28a.56.56,0,0,1-.64-.57q-.2-3.34-3.38-3.35a3.75,3.75,0,0,0-3.35,1.6A8.61,8.61,0,0,0,804.84,598.35ZM824.78,605h2.39a.5.5,0,0,1,.57.57v1.86a.5.5,0,0,1-.57.57h-9a.5.5,0,0,1-.57-.57v-1.86a.5.5,0,0,1,.57-.57h2.39V592.31h-2a.5.5,0,0,1-.57-.57v-2a.5.5,0,0,1,.57-.57h5.74a.5.5,0,0,1,.57.57Zm-4.6-19.19a3,3,0,0,1,0-3.88,2.63,2.63,0,0,1,2-.8,2.53,2.53,0,0,1,2,.8,2.86,2.86,0,0,1,0,3.88,2.68,2.68,0,0,1-2,.76A2.54,2.54,0,0,1,820.18,585.81Zm18,22.65q-4.52,0-6.65-2.63a11,11,0,0,1-2.09-7,11.35,11.35,0,0,1,2.24-7.22,7.74,7.74,0,0,1,6.46-2.85,7.41,7.41,0,0,1,3.57.8,5.44,5.44,0,0,1,2.32,2.09,11.48,11.48,0,0,1,1.52,6,4.71,4.71,0,0,1-.15,1.74.81.81,0,0,1-.57.16H833.67a7.93,7.93,0,0,0,1.33,4.25c.78,1,2.13,1.48,4,1.48a10.58,10.58,0,0,0,4.29-1,.48.48,0,0,1,.76.3l.72,1.75c.13.3,0,.56-.34.76A13,13,0,0,1,838.19,608.46Zm-4.52-11.75h7.9c0-3.16-1.19-4.75-3.72-4.75a3.53,3.53,0,0,0-3.19,1.45A6.38,6.38,0,0,0,833.67,596.71Zm14.8-2.09a5.31,5.31,0,0,1,1.94-4.18,7.24,7.24,0,0,1,4.9-1.67,16.94,16.94,0,0,1,5.13.69.65.65,0,0,1,.53.68v4a.5.5,0,0,1-.57.57h-2.2c-.41,0-.57-.19-.5-.57l.19-1.94a5.28,5.28,0,0,0-2.5-.61c-2,0-3,.71-3,2.13a2,2,0,0,0,1,1.75,9.18,9.18,0,0,0,2.4,1.06c.93.26,1.87.56,2.81.91a5.25,5.25,0,0,1,2.43,1.75,4.78,4.78,0,0,1,1,3.12,5.51,5.51,0,0,1-2,4.52,9,9,0,0,1-5.67,1.6,20.79,20.79,0,0,1-5.35-.76.69.69,0,0,1-.5-.73v-4a.5.5,0,0,1,.57-.57h2.21c.38,0,.55.19.53.57l-.12,2a4.84,4.84,0,0,0,2.93.76c2.25,0,3.38-.8,3.38-2.39a2.18,2.18,0,0,0-1-1.9,6.65,6.65,0,0,0-2.35-1.1c-.91-.26-1.84-.54-2.78-.84a5.51,5.51,0,0,1-2.39-1.67A5,5,0,0,1,848.47,594.62Z"/><path class="cls-16" d="M609,336.42c.06,0,.1.1.1.29s0,.29-.1.29h-8.54q-1.07,0-3.94-3.94t-7-11.08a10.29,10.29,0,0,1-1.1,0c-1.25,0-2.13,0-2.64,0v11.13a7,7,0,0,0,.24,2.16,1.42,1.42,0,0,0,.91.91,7.73,7.73,0,0,0,2.26.24c.06,0,.09.1.09.29s0,.29-.09.29c-1.06,0-1.89,0-2.5-.05l-3.65-.05-3.5.05c-.64,0-1.51.05-2.59.05-.1,0-.15-.1-.15-.29s0-.29.15-.29a7.14,7.14,0,0,0,2.2-.24,1.43,1.43,0,0,0,1-.91,6,6,0,0,0,.29-2.16V310.89a6.73,6.73,0,0,0-.24-2.11,1.45,1.45,0,0,0-1-.92,6.43,6.43,0,0,0-2.21-.28c-.06,0-.09-.1-.09-.29s0-.29.09-.29l2.55.05c1.47.06,2.64.09,3.5.09s1.95,0,3.07-.14l1.35-.1c.57,0,1.25,0,2,0a12,12,0,0,1,6.82,1.63,5,5,0,0,1,2.45,4.46,7.51,7.51,0,0,1-1.35,4.23,10.33,10.33,0,0,1-3.5,3.26q3.84,6,6.43,9.46a29.15,29.15,0,0,0,4.66,5A6.72,6.72,0,0,0,609,336.42Zm-23.18-15.84a16.79,16.79,0,0,0,2.78.2,6,6,0,0,0,2.74-.53,3,3,0,0,0,1.44-1.83,10.88,10.88,0,0,0,.48-3.64c0-2.63-.39-4.44-1.15-5.43a4,4,0,0,0-3.32-1.49,3,3,0,0,0-2.3.72,3.46,3.46,0,0,0-.67,2.4Zm46.52,8.79c0-.07.06-.1.19-.1a.3.3,0,0,1,.24.1q.15,0,.15.09a54.08,54.08,0,0,0-.48,6.82.94.94,0,0,1-.15.58.85.85,0,0,1-.57.14H610.53c-.1,0-.14-.1-.14-.29s0-.29.14-.29a7.25,7.25,0,0,0,2.21-.24,1.43,1.43,0,0,0,1-.91,7.28,7.28,0,0,0,.24-2.16V310.89a6.73,6.73,0,0,0-.24-2.11,1.45,1.45,0,0,0-1-.92,6.43,6.43,0,0,0-2.21-.28c-.1,0-.14-.1-.14-.29s0-.29.14-.29h20.35c.32,0,.48.14.48.43l.1,6.39c0,.06-.1.11-.29.14s-.26,0-.29-.1a7.28,7.28,0,0,0-2.59-4.12,7.87,7.87,0,0,0-4.8-1.35h-1.44a3,3,0,0,0-2.11.63,2.48,2.48,0,0,0-.67,1.92v9.79h4a7.87,7.87,0,0,0,4.27-1,3,3,0,0,0,1.49-2.69c0-.1.08-.14.24-.14s.29,0,.29.14l0,4.32,0,2.3c.06,1.09.1,2,.1,2.6,0,.06-.1.09-.29.09s-.29,0-.29-.09a3.57,3.57,0,0,0-1.54-3.08,7,7,0,0,0-4.32-1.15h-3.93v10.85a3.3,3.3,0,0,0,.52,2.06,2,2,0,0,0,1.68.68h1.59a10.55,10.55,0,0,0,6-1.54A8.83,8.83,0,0,0,632.37,329.37ZM667,307c.09,0,.14.1.14.29s-.05.29-.14.29a4.74,4.74,0,0,0-3.31,1.53,10.93,10.93,0,0,0-2.55,4.13L652.23,337c0,.13-.21.19-.53.19s-.49-.06-.53-.19l-12.24-26a9.1,9.1,0,0,0-1.72-2.54,2.65,2.65,0,0,0-1.92-.86c-.1,0-.15-.1-.15-.29s.05-.29.15-.29a7.18,7.18,0,0,1,1,.05c.64.06,1.48.09,2.5.09q4.13,0,7-.09c.51,0,1.15-.05,1.92-.05.1,0,.14.1.14.29s0,.29-.14.29a3.63,3.63,0,0,0-2.26.62,2,2,0,0,0-.76,1.68,4.94,4.94,0,0,0,.52,2l8.31,17.71,6.24-16.46a7.1,7.1,0,0,0,.48-2.31,3.12,3.12,0,0,0-.91-2.35,3.45,3.45,0,0,0-2.55-.86c-.09,0-.14-.1-.14-.29s.05-.29.14-.29l2.35.05q2,.09,3.6.09c.61,0,1.36,0,2.26-.09Zm23.57,22.37c0-.07.07-.1.19-.1a.3.3,0,0,1,.24.1q.15,0,.15.09a54.08,54.08,0,0,0-.48,6.82.94.94,0,0,1-.15.58.84.84,0,0,1-.57.14H668.7c-.09,0-.14-.1-.14-.29s.05-.29.14-.29a7.21,7.21,0,0,0,2.21-.24,1.43,1.43,0,0,0,1-.91,7.28,7.28,0,0,0,.24-2.16V310.89a6.73,6.73,0,0,0-.24-2.11,1.45,1.45,0,0,0-1-.92,6.43,6.43,0,0,0-2.21-.28c-.09,0-.14-.1-.14-.29s.05-.29.14-.29h20.35c.32,0,.48.14.48.43l.1,6.39c0,.06-.1.11-.29.14s-.25,0-.29-.1a7.28,7.28,0,0,0-2.59-4.12,7.85,7.85,0,0,0-4.8-1.35h-1.44a3,3,0,0,0-2.11.63,2.48,2.48,0,0,0-.67,1.92v9.79h4a7.87,7.87,0,0,0,4.27-1,3,3,0,0,0,1.49-2.69c0-.1.08-.14.24-.14s.29,0,.29.14l-.05,4.32.05,2.3c.06,1.09.1,2,.1,2.6,0,.06-.1.09-.29.09s-.29,0-.29-.09a3.57,3.57,0,0,0-1.54-3.08,7,7,0,0,0-4.32-1.15h-3.93v10.85A3.24,3.24,0,0,0,678,335a2,2,0,0,0,1.68.68h1.58a10.5,10.5,0,0,0,6-1.54A8.83,8.83,0,0,0,690.54,329.37Zm12.9,3.55a6.1,6.1,0,0,0,.2,1.82,1.09,1.09,0,0,0,.71.72,6.23,6.23,0,0,0,1.83.2h1.63a10.8,10.8,0,0,0,6.48-2,9.65,9.65,0,0,0,3.65-5.43c0-.06.06-.09.19-.09a.26.26,0,0,1,.19.09c.1,0,.15.07.15.1q-.44,4.75-.44,7.92a.78.78,0,0,1-.19.58.75.75,0,0,1-.52.14H694.66c-.07,0-.1-.1-.1-.29s0-.29.1-.29a7.25,7.25,0,0,0,2.21-.24,1.43,1.43,0,0,0,1-.91,6.22,6.22,0,0,0,.28-2.16V310.89a5.76,5.76,0,0,0-.28-2.11,1.45,1.45,0,0,0-1-.92,6.43,6.43,0,0,0-2.21-.28c-.07,0-.1-.1-.1-.29s0-.29.1-.29l2.45.05c1.47.06,2.68.09,3.65.09s2.17,0,3.64-.09l2.45-.05c.1,0,.14.1.14.29s0,.29-.14.29a6.43,6.43,0,0,0-2.21.28,1.44,1.44,0,0,0-1,1,6.85,6.85,0,0,0-.24,2.12Zm24.29-21.07a5.61,5.61,0,0,0,.86,3.07,10.06,10.06,0,0,0,2.21,2.35c.86.67,2,1.49,3.5,2.45a44.62,44.62,0,0,1,3.84,2.69,10.5,10.5,0,0,1,2.45,2.83,7.08,7.08,0,0,1,1,3.79,7.79,7.79,0,0,1-1.34,4.47,9.14,9.14,0,0,1-3.75,3,12.83,12.83,0,0,1-5.28,1.06,19.18,19.18,0,0,1-4.51-.58,8.39,8.39,0,0,1-3.17-1.34,3.53,3.53,0,0,1-.38-.34,1.26,1.26,0,0,1-.1-.58l-.14-7.63v-.05c0-.12.08-.19.24-.19s.25,0,.29.15c.95,2,1.79,3.53,2.49,4.75a13.15,13.15,0,0,0,2.74,3.21,5.78,5.78,0,0,0,3.79,1.4,4.89,4.89,0,0,0,3.17-1,4.44,4.44,0,0,0,1.25-3.55,6.92,6.92,0,0,0-1-3.7,9.5,9.5,0,0,0-2.25-2.69q-1.35-1.1-3.7-2.64t-3.6-2.54a10.54,10.54,0,0,1-2.16-2.55,6.54,6.54,0,0,1-.91-3.5,6.43,6.43,0,0,1,1.44-4.27,8.51,8.51,0,0,1,3.79-2.59,13.66,13.66,0,0,1,4.85-.87,17.37,17.37,0,0,1,3.41.34,13,13,0,0,1,2.78.72,1.27,1.27,0,0,1,.58.43.84.84,0,0,1,.14.53v7.05q0,.15-.24.24c-.16,0-.25,0-.28-.09l-.39-.91a21,21,0,0,0-2.83-5.14,5.25,5.25,0,0,0-4.47-2.11,4.62,4.62,0,0,0-3.16,1.1A4.17,4.17,0,0,0,727.73,311.85ZM747.82,307a3,3,0,0,1,2.59,1.3,6.1,6.1,0,0,1,1,3.69,8.68,8.68,0,0,1-1,4,15.08,15.08,0,0,1-2.88,3.7.2.2,0,0,1-.14,0,.27.27,0,0,1-.24-.15.18.18,0,0,1,0-.24,7.8,7.8,0,0,0,2.35-5.66,3.24,3.24,0,0,0-.48-2,1.91,1.91,0,0,1-1.77.72,2.55,2.55,0,0,1-1.88-.72,2.92,2.92,0,0,1-.67-2,2.52,2.52,0,0,1,.82-2A3.33,3.33,0,0,1,747.82,307Zm6.33,29.28q2.16-2.58,4.14-4.86,3.66-4.2,5.58-6.66A30.45,30.45,0,0,0,767,320a9.65,9.65,0,0,0,1.26-4.44,6.38,6.38,0,0,0-1.32-4,4.34,4.34,0,0,0-3.72-1.8,5.29,5.29,0,0,0-4.32,2.1,27.06,27.06,0,0,0-3.48,6.12q0,.12-.24.12a1.13,1.13,0,0,1-.36-.06q-.18-.12-.12-.18l2.64-10.26q0-.12.24-.12a.41.41,0,0,1,.3.12q.18.06.12.12a3.73,3.73,0,0,0-.06.72q0,1.08.9,1.08a6.52,6.52,0,0,0,2-.48q1.8-.48,2.82-.66a11.4,11.4,0,0,1,2.46-.24,8.9,8.9,0,0,1,6.18,2.1,6.75,6.75,0,0,1,2.34,5.34,7.36,7.36,0,0,1-1,3.72,11.8,11.8,0,0,1-2.4,2.88q-1.38,1.26-4,3.24-2.34,1.74-4,3.18a26.06,26.06,0,0,0-3.12,3.18q-.36.42.24.42,7.86,0,10.86-.18a11.54,11.54,0,0,0,4.08-.72,3.56,3.56,0,0,0,1.5-2.1q.06-.18.36-.18t.36.18l-.6,7.14a.8.8,0,0,1-.18.48.4.4,0,0,1-.36.18h-21.9a.52.52,0,0,1-.42-.24A.51.51,0,0,1,754.15,336.28Zm27,0q2.16-2.58,4.14-4.86,3.66-4.2,5.58-6.66a30.45,30.45,0,0,0,3.12-4.8,9.65,9.65,0,0,0,1.26-4.44,6.38,6.38,0,0,0-1.32-4,4.34,4.34,0,0,0-3.72-1.8,5.29,5.29,0,0,0-4.32,2.1,27.06,27.06,0,0,0-3.48,6.12q0,.12-.24.12a1.13,1.13,0,0,1-.36-.06q-.18-.12-.12-.18l2.64-10.26q0-.12.24-.12a.41.41,0,0,1,.3.12q.18.06.12.12a3.73,3.73,0,0,0-.06.72q0,1.08.9,1.08a6.52,6.52,0,0,0,2-.48q1.8-.48,2.82-.66a11.4,11.4,0,0,1,2.46-.24,8.9,8.9,0,0,1,6.18,2.1,6.75,6.75,0,0,1,2.34,5.34,7.36,7.36,0,0,1-1,3.72,11.8,11.8,0,0,1-2.4,2.88q-1.38,1.26-4,3.24-2.34,1.74-4,3.18a26.06,26.06,0,0,0-3.12,3.18q-.36.42.24.42,7.86,0,10.86-.18a11.54,11.54,0,0,0,4.08-.72,3.56,3.56,0,0,0,1.5-2.1q.06-.18.36-.18t.36.18l-.6,7.14a.8.8,0,0,1-.18.48.4.4,0,0,1-.36.18h-21.9a.52.52,0,0,1-.42-.24A.51.51,0,0,1,781.1,336.28ZM528.84,358.83a20.45,20.45,0,0,1,3.49.31,10.63,10.63,0,0,1,2.85.72.62.62,0,0,1,.42.3,1.37,1.37,0,0,1,.19.57l.46,5.28c0,.08-.07.13-.19.16s-.21,0-.23-.12a11.11,11.11,0,0,0-3.46-4.63,8.08,8.08,0,0,0-5-1.64,6.81,6.81,0,0,0-5.81,2.78,12.2,12.2,0,0,0-2,7.44,17.93,17.93,0,0,0,1.1,6.39,11.42,11.42,0,0,0,3.15,4.6,7.19,7.19,0,0,0,4.64,1.67,6.51,6.51,0,0,0,4.33-1.6,13.83,13.83,0,0,0,3.46-4.94c0-.1.1-.14.23-.11s.23.07.23.15l-.57,5.17a1.74,1.74,0,0,1-.19.61,1.11,1.11,0,0,1-.42.26,19.78,19.78,0,0,1-7,1.26,15.09,15.09,0,0,1-7.75-1.83,12,12,0,0,1-4.6-4.67A13,13,0,0,1,514.7,371a10.85,10.85,0,0,1,1.94-6.38,13.08,13.08,0,0,1,5.21-4.3A16.36,16.36,0,0,1,528.84,358.83Zm14.66,12.31c0,.66-.07,1.21-.07,1.64a11,11,0,0,0,1.86,6.72,6.13,6.13,0,0,0,5.24,2.51,7.73,7.73,0,0,0,1.94-.26,5.73,5.73,0,0,0,1.75-.8h0a.23.23,0,0,1,.19.15.17.17,0,0,1,0,.23,9.14,9.14,0,0,1-5.85,2.13,9.61,9.61,0,0,1-5-1.26,8.54,8.54,0,0,1-3.12-3.34,9.51,9.51,0,0,1-1.06-4.45,9.62,9.62,0,0,1,9.57-9.54,5.82,5.82,0,0,1,4.3,1.49,5.22,5.22,0,0,1,1.48,3.87,1.57,1.57,0,0,1-.11.69.34.34,0,0,1-.35.19Zm4.18-5.35A3.39,3.39,0,0,0,545,367a7.06,7.06,0,0,0-1.4,3.38l7.06-.11Q550.61,365.79,547.68,365.79Zm15,14a4.45,4.45,0,0,0,.19,1.52,1.27,1.27,0,0,0,.72.72,5.49,5.49,0,0,0,1.67.19h.42a6.26,6.26,0,0,0,4-1.4,8.18,8.18,0,0,0,2.63-3.8c0-.05.1-.07.22,0s.23,0,.23.07a42.94,42.94,0,0,0-.26,5.4.6.6,0,0,1-.16.46.66.66,0,0,1-.45.11h-15.2s-.08-.08-.08-.23,0-.23.08-.23a3.91,3.91,0,0,0,1.44-.19,1,1,0,0,0,.61-.72,5.65,5.65,0,0,0,.19-1.71V368.29a5.28,5.28,0,0,0-.19-1.67,1,1,0,0,0-.61-.72,3.4,3.4,0,0,0-1.44-.23s-.08-.07-.08-.23,0-.22.08-.22l1.86,0c1.06.05,1.89.08,2.47.08s1.52,0,2.58-.08l1.75,0c.08,0,.12.07.12.22s0,.23-.12.23a4.9,4.9,0,0,0-1.71.23,1.16,1.16,0,0,0-.72.76,5.28,5.28,0,0,0-.19,1.67Zm15.84-8.63c0,.66-.08,1.21-.08,1.64a11,11,0,0,0,1.86,6.72,6.14,6.14,0,0,0,5.25,2.51,7.79,7.79,0,0,0,1.94-.26,5.67,5.67,0,0,0,1.74-.8h0c.08,0,.14.05.19.15a.17.17,0,0,1,0,.23,9.14,9.14,0,0,1-5.85,2.13,9.64,9.64,0,0,1-5.06-1.26,8.59,8.59,0,0,1-3.11-3.34,9.52,9.52,0,0,1-1.07-4.45,9.2,9.2,0,0,1,1.29-4.79,9.34,9.34,0,0,1,3.5-3.45,9.24,9.24,0,0,1,4.79-1.3,5.79,5.79,0,0,1,4.29,1.49,5.22,5.22,0,0,1,1.48,3.87,1.44,1.44,0,0,1-.11.69.33.33,0,0,1-.34.19Zm4.18-5.35A3.38,3.38,0,0,0,580,367a7,7,0,0,0-1.41,3.38l7.07-.11Q585.61,365.79,582.68,365.79Zm20.14,7.37a8.15,8.15,0,0,1,4.49,1.29,3.7,3.7,0,0,1,1.55,3.15,4.6,4.6,0,0,1-1,2.89,6.28,6.28,0,0,1-2.66,2,10.14,10.14,0,0,1-3.83.68c-.69,0-1.51,0-2.47-.11l-1.33-.08c-.51,0-1.07,0-1.68,0l-2.43,0c-.45,0-1.09,0-1.9,0-.05,0-.07-.08-.07-.23s0-.23.07-.23a4.94,4.94,0,0,0,1.64-.19,1,1,0,0,0,.68-.72,5.65,5.65,0,0,0,.19-1.71V368.29a5.28,5.28,0,0,0-.19-1.67,1,1,0,0,0-.68-.72,4,4,0,0,0-1.56-.23c-.08,0-.12-.07-.12-.23s0-.22.12-.22l1.82,0c1,.05,1.83.08,2.43.08.76,0,1.56,0,2.4-.11.28,0,.69-.05,1.25-.08s1,0,1.45,0a8.46,8.46,0,0,1,4.37.95,3,3,0,0,1,1.59,2.74,3.53,3.53,0,0,1-1.06,2.54A7.86,7.86,0,0,1,602.82,373.16Zm-2.73-7.56a3.22,3.22,0,0,0-1.37.22,1.2,1.2,0,0,0-.65.8,6.17,6.17,0,0,0-.19,1.75v4.71c.43,0,1,0,1.71,0a7.39,7.39,0,0,0,2.09-.23,2,2,0,0,0,1.14-1,4.83,4.83,0,0,0,.38-2.16Q603.2,365.6,600.09,365.6Zm.64,16.94q4.14,0,4.14-4c0-3.1-1.91-4.64-5.73-4.64-.56,0-1,0-1.26,0v6a2.94,2.94,0,0,0,.57,2.05A3.3,3.3,0,0,0,600.73,382.54Zm31.22,0c.07,0,.11.08.11.23s0,.23-.11.23h-6.24c-.38,0-1.06-.76-2.05-2.28s-2.12-3.61-3.46-6.27a10.62,10.62,0,0,1-1.59.11H618v5.36a6.89,6.89,0,0,0,.15,1.71,1.14,1.14,0,0,0,.65.72,4.6,4.6,0,0,0,1.56.19s.07.08.07.23,0,.23-.07.23c-.76,0-1.36,0-1.79,0l-2.58,0-2.47,0c-.46,0-1.09,0-1.9,0-.05,0-.08-.08-.08-.23s0-.23.08-.23a4.64,4.64,0,0,0,1.56-.19,1.13,1.13,0,0,0,.68-.72,5.65,5.65,0,0,0,.19-1.71V368.29a5.28,5.28,0,0,0-.19-1.67,1,1,0,0,0-.65-.72,3.83,3.83,0,0,0-1.52-.23c-.07,0-.11-.07-.11-.23s0-.22.11-.22l1.87,0c1,.05,1.82.08,2.43.08s.92,0,1.33,0l1.06-.07c.84-.08,1.62-.12,2.36-.12a8.82,8.82,0,0,1,4.52.95,3,3,0,0,1,1.56,2.74,4.42,4.42,0,0,1-.95,2.73,7.12,7.12,0,0,1-2.62,2.06,56,56,0,0,0,3.53,5.39,13.06,13.06,0,0,0,2.7,2.78A4.5,4.5,0,0,0,632,382.54Zm-14-8.74a6.48,6.48,0,0,0,.91,0,3.79,3.79,0,0,0,3-1,4.75,4.75,0,0,0,.83-3q0-3.94-2.89-3.95a2.67,2.67,0,0,0-1.17.19,1.08,1.08,0,0,0-.54.72,6.11,6.11,0,0,0-.15,1.6Zm31.57,7c.08,0,.13.06.16.19s0,.2-.08.23l-4.18,2a.77.77,0,0,1-.34.08,2.29,2.29,0,0,1-1.45-.61,4,4,0,0,1-1.06-1.94l-2.28,1.33a8.88,8.88,0,0,1-2,.95,6.19,6.19,0,0,1-1.83.27,3.67,3.67,0,0,1-2.43-.8,2.57,2.57,0,0,1-1-2.05,3,3,0,0,1,.76-2.06A5.17,5.17,0,0,1,636,377l6.3-2.24v-4.53a8.56,8.56,0,0,0-.49-3.38,1.55,1.55,0,0,0-1.52-1.06,2.12,2.12,0,0,0-1.9,1.1,8.82,8.82,0,0,0-1.06,2.81c-.28,1.42-1,2.13-2.21,2.13a2.34,2.34,0,0,1-1.52-.46,1.76,1.76,0,0,1-.53-1.36,3.19,3.19,0,0,1,1.41-2.32,11.65,11.65,0,0,1,3.49-2,10.51,10.51,0,0,1,3.76-.8,4.6,4.6,0,0,1,3.2,1.07,3.91,3.91,0,0,1,1.17,3.11v8.1a7.92,7.92,0,0,0,.31,2.54,1.78,1.78,0,0,0,.76,1.07,3,3,0,0,0,1.25.23,4.21,4.21,0,0,0,1-.19Zm-7.1-.8a8.84,8.84,0,0,1-.12-1.52v-2.93l-3.26,1.22a2.47,2.47,0,0,0-1.83,2.43,2.53,2.53,0,0,0,.5,1.64,1.65,1.65,0,0,0,1.33.57,4.08,4.08,0,0,0,1.67-.54Zm20.8.84a.18.18,0,0,1,.19.15.16.16,0,0,1,0,.23,12.3,12.3,0,0,1-2.81,1.78,7.18,7.18,0,0,1-2.73.5,6,6,0,0,1-3.84-1.22,4.8,4.8,0,0,1-1.56-4v-9.95a1.62,1.62,0,0,0-.46-1.37,2.63,2.63,0,0,0-1.59-.34c-.08,0-.12-.12-.12-.35s0-.34.12-.34a6.69,6.69,0,0,0,3.38-.83,3.86,3.86,0,0,0,1.86-2.21.27.27,0,0,1,.23-.11.44.44,0,0,1,.26.07q.12,0,.12.12v2.77c1.75,0,3.79-.14,6.12-.34.07,0,.14.09.19.27a2.36,2.36,0,0,1,.07.64,2.06,2.06,0,0,1-.15.76c-.07.23-.15.33-.23.31a31.33,31.33,0,0,0-6-.61v10.64q0,4.52,3.34,4.52a6.23,6.23,0,0,0,3.58-1Zm8.39-.88a6,6,0,0,0,.19,1.71,1.13,1.13,0,0,0,.69.72,4.72,4.72,0,0,0,1.59.19c.06,0,.08.08.08.23s0,.23-.08.23c-.78,0-1.39,0-1.82,0l-2.58,0-2.47,0c-.46,0-1.09,0-1.9,0-.05,0-.08-.08-.08-.23s0-.23.08-.23a4.72,4.72,0,0,0,1.59-.19,1.08,1.08,0,0,0,.72-.72,5.65,5.65,0,0,0,.19-1.71V368.29a5.28,5.28,0,0,0-.19-1.67,1.12,1.12,0,0,0-.72-.72,4.1,4.1,0,0,0-1.59-.23c-.05,0-.08-.07-.08-.23s0-.22.08-.22l1.9,0c1,.05,1.83.08,2.47.08s1.55,0,2.62-.08l1.78,0c.06,0,.08.07.08.22s0,.23-.08.23a4.27,4.27,0,0,0-1.59.23,1.29,1.29,0,0,0-.69.8,5.54,5.54,0,0,0-.19,1.67Zm25.26,2.62s.08.08.08.23,0,.23-.08.23c-.63,0-1.12,0-1.48,0l-2,0-2.28,0c-.38,0-.89,0-1.52,0,0,0-.08-.08-.08-.23s0-.23.08-.23a2.85,2.85,0,0,0,1.29-.22,1.21,1.21,0,0,0,.57-.76,7.23,7.23,0,0,0,.15-1.71v-7.57c0-2.38-.36-4-1.06-4.9a3.38,3.38,0,0,0-2.85-1.37,5.68,5.68,0,0,0-2.85.76,7.86,7.86,0,0,0-2.44,2.47v10.61a9,9,0,0,0,.12,1.71,1.27,1.27,0,0,0,.53.76,2.74,2.74,0,0,0,1.25.22c.06,0,.08.08.08.23s0,.23-.08.23c-.73,0-1.31,0-1.74,0l-2.21,0-2.09,0c-.4,0-1,0-1.71,0-.05,0-.07-.08-.07-.23s0-.23.07-.23a3.24,3.24,0,0,0,1.29-.19,1,1,0,0,0,.61-.72,7.23,7.23,0,0,0,.15-1.71V368.29a6.74,6.74,0,0,0-.15-1.67,1.06,1.06,0,0,0-.57-.72,2.46,2.46,0,0,0-1.21-.23c-.08,0-.12-.07-.12-.23s0-.22.12-.22l2.47,0,2.54,0q.46,0,.57.15t.15.57V368a9.69,9.69,0,0,1,3.12-2.47,8.46,8.46,0,0,1,3.69-.8,6.47,6.47,0,0,1,4.4,1.52q1.76,1.49,1.75,5.13v8.51a9,9,0,0,0,.12,1.71,1,1,0,0,0,.41.72A1.83,1.83,0,0,0,696.88,382.54Zm12.16.92a10.81,10.81,0,0,1-5.32-1.26,8.89,8.89,0,0,1-3.42-3.38,8.79,8.79,0,0,1-1.18-4.41,9.61,9.61,0,0,1,1.33-5.13,8.64,8.64,0,0,1,3.84-3.34,13.27,13.27,0,0,1,5.81-1.18,16.45,16.45,0,0,1,3.19.3,9.12,9.12,0,0,1,2.59.88.47.47,0,0,1,.3.26,1.69,1.69,0,0,1,.11.57l.19,3.58c0,.07-.07.12-.22.15s-.21,0-.23-.12q-2.92-4.78-6.8-4.78a5,5,0,0,0-4.26,2.16,10.68,10.68,0,0,0-1.52,6.16,10.37,10.37,0,0,0,1.75,6.27,5.58,5.58,0,0,0,4.75,2.39,5.87,5.87,0,0,0,2.2-.3,1.76,1.76,0,0,0,1-1.22,10.94,10.94,0,0,0,.27-2.85,4.26,4.26,0,0,0-.15-1.37.87.87,0,0,0-.65-.53,6.68,6.68,0,0,0-1.71-.15c-.15,0-.23-.1-.23-.3a.36.36,0,0,1,0-.19q.08-.12.15-.12,2,.15,4,.15c.61,0,1.62,0,3-.07,0,0,.09,0,.12.11a.21.21,0,0,1,.07.15c0,.18-.06.27-.19.27a1.44,1.44,0,0,0-.8.11.94.94,0,0,0-.3.65,11.9,11.9,0,0,0-.08,1.67c0,1.14,0,1.94.08,2.4a6,6,0,0,1,.11.95.44.44,0,0,1-.07.3,2.87,2.87,0,0,1-.38.15A19.89,19.89,0,0,1,709,383.46Zm35.61-2.28c.1,0,.15.22.15.68a3.92,3.92,0,0,1-.08.76c-.05.23-.1.34-.15.34l-2.51-.11v5.28a.54.54,0,0,1-.3.53l-3,1.48-.22.08q-.12,0-.12-.3v-7.15q-2.61-.07-9.8-.07a.28.28,0,0,1-.27-.16.32.32,0,0,1,0-.3l13.11-17.4a.26.26,0,0,1,.23-.12.43.43,0,0,1,.23.08.21.21,0,0,1,.11.19v16.26C742.57,381.25,743.43,381.23,744.65,381.18Zm-13.72.22q3.27,0,7.52-.07V371l-7.71,10.19C730.64,381.32,730.7,381.4,730.93,381.4Zm25.59,2.09a9.25,9.25,0,0,1-4.67-1.17,8.67,8.67,0,0,1-3.23-3.35,10.43,10.43,0,0,1-1.14-4.94,9.86,9.86,0,0,1,1.14-4.79,8.22,8.22,0,0,1,3.23-3.23,9.46,9.46,0,0,1,4.71-1.17,9,9,0,0,1,4.6,1.17,7.92,7.92,0,0,1,3.15,3.31,9.91,9.91,0,0,1,1.14,4.83,10.14,10.14,0,0,1-1.14,4.86,8.2,8.2,0,0,1-3.19,3.31A9,9,0,0,1,756.52,383.49Zm.46-.79a3.2,3.2,0,0,0,3-2.17,14.52,14.52,0,0,0,1-5.93,15.58,15.58,0,0,0-.69-5,6.65,6.65,0,0,0-1.75-3,3.4,3.4,0,0,0-2.39-1,3.48,3.48,0,0,0-3.15,2.25,13,13,0,0,0-1.14,5.89,16.13,16.13,0,0,0,.61,4.63,7.73,7.73,0,0,0,1.78,3.16A3.83,3.83,0,0,0,757,382.7Zm38.39-17.48s.07.07.07.22,0,.23-.07.23a3,3,0,0,0-2.09.91,6.4,6.4,0,0,0-1.45,2.51L786.47,383a18.6,18.6,0,0,1-2.27,4.45,8.43,8.43,0,0,1-2.86,2.7c-.15.1-.41,0-.79-.31a3.27,3.27,0,0,1-.88-1.06,4.16,4.16,0,0,1-.38-1.6c0-.43.1-.67.31-.72a10.81,10.81,0,0,0,3.61-1.1,5.49,5.49,0,0,0,2.39-2.4l-7-14.55a7.81,7.81,0,0,0-1.33-2.13,2.11,2.11,0,0,0-1.56-.57c-.07,0-.11-.07-.11-.23s0-.22.11-.22l1.67,0c1,.05,1.89.08,2.78.08.63,0,1.43,0,2.39-.08l1.67,0c.08,0,.12.07.12.22s0,.23-.12.23c-1.32,0-2,.38-2,1.14a2.72,2.72,0,0,0,.34,1.18l4.86,9.88,3.35-9a4.31,4.31,0,0,0,.3-1.44c0-1.16-.78-1.75-2.35-1.75-.08,0-.12-.07-.12-.23s0-.22.12-.22l1.33,0c.81.05,1.6.08,2.39.08.43,0,.92,0,1.48-.08Zm5,5.92c0,.66-.07,1.21-.07,1.64a11,11,0,0,0,1.86,6.72,6.13,6.13,0,0,0,5.24,2.51,7.79,7.79,0,0,0,1.94-.26,5.73,5.73,0,0,0,1.75-.8h0c.08,0,.14.05.19.15a.17.17,0,0,1,0,.23,9.14,9.14,0,0,1-5.85,2.13,9.61,9.61,0,0,1-5-1.26,8.54,8.54,0,0,1-3.12-3.34,9.51,9.51,0,0,1-1.06-4.45,9.2,9.2,0,0,1,1.29-4.79,9.7,9.7,0,0,1,8.28-4.75,5.82,5.82,0,0,1,4.3,1.49,5.25,5.25,0,0,1,1.48,3.87,1.41,1.41,0,0,1-.12.69.33.33,0,0,1-.34.19Zm4.18-5.35a3.39,3.39,0,0,0-2.66,1.21,7.06,7.06,0,0,0-1.4,3.38l7.06-.11Q807.51,365.79,804.59,365.79Zm26.78,15c.08,0,.13.06.15.19s0,.2-.07.23l-4.18,2a.82.82,0,0,1-.35.08,2.27,2.27,0,0,1-1.44-.61,4,4,0,0,1-1.06-1.94l-2.28,1.33a8.93,8.93,0,0,1-2.06.95,6.12,6.12,0,0,1-1.82.27,3.65,3.65,0,0,1-2.43-.8,2.54,2.54,0,0,1-1-2.05,3,3,0,0,1,.76-2.06,5.13,5.13,0,0,1,2.2-1.4l6.31-2.24v-4.53a8.75,8.75,0,0,0-.49-3.38,1.57,1.57,0,0,0-1.52-1.06,2.11,2.11,0,0,0-1.9,1.1,8.82,8.82,0,0,0-1.07,2.81c-.28,1.42-1,2.13-2.2,2.13a2.32,2.32,0,0,1-1.52-.46,1.73,1.73,0,0,1-.53-1.36,3.18,3.18,0,0,1,1.4-2.32,11.71,11.71,0,0,1,3.5-2,10.51,10.51,0,0,1,3.76-.8,4.57,4.57,0,0,1,3.19,1.07,3.88,3.88,0,0,1,1.18,3.11v8.1a8,8,0,0,0,.3,2.54,1.86,1.86,0,0,0,.76,1.07,3.05,3.05,0,0,0,1.26.23,4.15,4.15,0,0,0,1-.19Zm-7.11-.8a10,10,0,0,1-.11-1.52v-2.93l-3.27,1.22a2.47,2.47,0,0,0-1.82,2.43,2.52,2.52,0,0,0,.49,1.64,1.67,1.67,0,0,0,1.33.57,4,4,0,0,0,1.67-.54Zm28.6,2.58c.07,0,.11.08.11.23s0,.23-.11.23h-6.24c-.38,0-1.06-.76-2-2.28s-2.11-3.61-3.46-6.27a10.62,10.62,0,0,1-1.59.11h-.65v5.36a6.33,6.33,0,0,0,.16,1.71,1.11,1.11,0,0,0,.64.72,4.6,4.6,0,0,0,1.56.19s.07.08.07.23,0,.23-.07.23c-.76,0-1.36,0-1.79,0l-2.58,0-2.47,0c-.46,0-1.09,0-1.9,0,0,0-.08-.08-.08-.23s0-.23.08-.23a4.6,4.6,0,0,0,1.56-.19,1.11,1.11,0,0,0,.68-.72,5.65,5.65,0,0,0,.19-1.71V368.29a5.28,5.28,0,0,0-.19-1.67,1.05,1.05,0,0,0-.64-.72,3.87,3.87,0,0,0-1.52-.23c-.08,0-.12-.07-.12-.23s0-.22.12-.22l1.86,0c1,.05,1.82.08,2.43.08s.92,0,1.33,0l1.06-.07c.84-.08,1.62-.12,2.36-.12a8.79,8.79,0,0,1,4.52.95,3,3,0,0,1,1.56,2.74,4.42,4.42,0,0,1-1,2.73,7.12,7.12,0,0,1-2.62,2.06,56,56,0,0,0,3.53,5.39,13.06,13.06,0,0,0,2.7,2.78A4.5,4.5,0,0,0,852.86,382.54Zm-14-8.74a6.48,6.48,0,0,0,.91,0,3.79,3.79,0,0,0,3-1,4.75,4.75,0,0,0,.83-3q0-3.94-2.89-3.95a2.67,2.67,0,0,0-1.17.19,1.07,1.07,0,0,0-.53.72,5.62,5.62,0,0,0-.16,1.6ZM857.56,368a3.11,3.11,0,0,0,.57,1.86,6.58,6.58,0,0,0,1.45,1.33c.58.36,1.37.79,2.35,1.29a30.36,30.36,0,0,1,2.66,1.56,5.68,5.68,0,0,1,1.68,1.6A3.88,3.88,0,0,1,867,378a4.67,4.67,0,0,1-.91,2.78,6.09,6.09,0,0,1-2.44,1.93,8.22,8.22,0,0,1-3.49.73,13.06,13.06,0,0,1-3.42-.46,6.25,6.25,0,0,1-2.28-.95c-.21-.13-.31-.39-.31-.8L854,377c0-.1.07-.17.19-.19a.22.22,0,0,1,.27.11,22.74,22.74,0,0,0,2.93,4.11,4.49,4.49,0,0,0,3.38,1.59,2.77,2.77,0,0,0,1.9-.68,2.65,2.65,0,0,0,.76-2,3.61,3.61,0,0,0-.65-2.13,5.24,5.24,0,0,0-1.52-1.52,25.29,25.29,0,0,0-2.43-1.48,18.94,18.94,0,0,1-3.42-2.28,3.76,3.76,0,0,1-1.18-2.85,4,4,0,0,1,1.94-3.5,8,8,0,0,1,4.67-1.33,12.87,12.87,0,0,1,2.55.27,11.09,11.09,0,0,1,2.13.6.76.76,0,0,1,.45.31.71.71,0,0,1,.12.45V370c0,.08-.07.14-.19.19a.24.24,0,0,1-.27-.07,13.12,13.12,0,0,0-2-3,4.31,4.31,0,0,0-3.42-1.49,2.54,2.54,0,0,0-1.94.69A2.31,2.31,0,0,0,857.56,368Z"/><circle class="cls-17" cx="809.5" cy="543" r="6"/><path class="cls-18" d="M624.64,166.13l-26-76.58-33,114Z"/><path class="cls-19" d="M822.46,203.47l-68.77-55.35,9.75,69.58Z"/><path class="cls-20" d="M598.67,89.55l-82.17-12,49.2,126Z"/><path class="cls-20" d="M685,111.77l13.92,92.36,54.79-56Z"/><path class="cls-21" d="M753.69,148.12l-54.79,56,64.54,13.57Z"/><path class="cls-18" d="M822.46,203.47l37,57.53-96.06-43.3Z"/><path class="cls-19" d="M510.5,207.44l32.71-61.53,22.49,57.61Z"/><path class="cls-21" d="M610.28,124.08,598.67,89.55,685,111.77Z"/><path class="cls-19" d="M685,111.77l-74.55,12.45,14.21,41.91,74.26,38Z"/><path class="cls-22" d="M565.7,203.52l133.2.61-74.26-38-27.75,17.69Z"/><polygon class="cls-13" points="510.5 207.44 565.7 203.52 698.9 204.13 763.44 217.7 859.5 261 822.46 203.47 753.69 148.13 684.98 111.77 598.67 89.55 516.5 77.5 543.21 145.91 510.5 207.44"/><path class="cls-20" d="M156.54,408l1-17,37.67,3.5Z"/><path class="cls-23" d="M158,434.5l-11.5-23,48.67-17Z"/><path class="cls-21" d="M181.5,432.5,167.77,424l27.4-29.48Z"/><polygon class="cls-13" points="195.17 394.5 181.5 432.5 167.78 423.98 158 434.5 146.5 411.5 156.54 407.99 157.5 391 195.17 394.5"/><path class="cls-23" d="M389.5,96l-12.83,3.14,13.66,37.19Z"/><path class="cls-19" d="M363.27,106.92,350,115l40.33,21.33Z"/><path class="cls-21" d="M373.5,90.5l16.83,45.83L356,99Z"/><polygon class="cls-8" points="390.33 136.33 389.5 96 376.67 99.14 373.5 90.5 356 99.02 363.27 106.92 350 115 390.33 136.33"/><path class="cls-21" d="M221.51,174.06l21.56,67.38-65.5-.44Z"/><path class="cls-24" d="M221.51,174.06l21.56,67.38-65.5-.44"/><path class="cls-19" d="M185.77,199.56,177.57,241l38.26-21.36Z"/><path class="cls-24" d="M185.77,199.56,177.57,241l38.26-21.36"/><path class="cls-23" d="M185.77,199.56l35.74-25.5L225.33,226Z"/><polygon class="cls-13" points="221.51 174.06 243.07 241.44 177.57 241 185.77 199.56 221.51 174.06"/><polyline class="cls-13" points="215.83 219.64 225.33 225.99 221.51 174.06"/><path class="cls-20" d="M147.5,382l-.67-96.67L167,376Z"/><path class="cls-21" d="M96,370l50.83-84.67L122,382.5Z"/><path class="cls-23" d="M122,382.5l24.83-97.17L147.5,382Z"/><polygon class="cls-13" points="146.83 285.33 167 376 147.5 382 122 382.5 96 370 146.83 285.33"/><path class="cls-9" d="M366,719.8c11.9-1.23,23,3.05,28.54,11.55.4.61,6.85,10.85,3.06,19.37-1.88,4.23-6,7.3-5.78,7.48s3.64-4.64,9.17-5.44a13,13,0,0,1,5.78.68,22.42,22.42,0,0,1,9.85,6.12c8,9,3.35,23,3.06,23.79-.9,2.57-3.49,9.91-10.87,13.59-7.74,3.86-17.72,2.18-25.49-4.08-.68-1.34-1.24-2.84-.68-3.4,1-1,5.74.86,7.81,4.08,3.22,5,1.12,14.92-5.78,18-7.06,3.17-14.15-3.08-14.55-3.44-3.16-2.87-6.19-8.15-4.47-10.49,1.57-2.15,6.8-1.36,10.17.5,6.08,3.35,9.92,12.27,7.16,19.21-3.44,8.64-15.61,10.44-23.45,8.16C347.33,821.93,340,806.81,343.25,802c1.76-2.6,7.5-3.07,9.85-.68,2.17,2.21,1,6.44.68,7.82-2.36,8.91-12.06,15-16.31,17.67-3.31,2.08-5.44,3-7.14,5.78-2,3.24-3,8.46-.53,10.6,1.75,1.52,5.06,1.31,7.32-.06,5.69-3.45,6.28-15.23,2.38-23.45-1.3-2.73-1.59-1.92-6.47-8.93-5.55-8-8.42-11.91-8.48-14.52-.19-8.27,11.34-10.17,11.89-19.37.31-5.32-3.19-10.8-7.48-13.25-8.88-5.06-21.65,2.6-25.82,5.1-10.75,6.44-11.42,11-19.91,12.72-6.61,1.37-15.89.41-18-4.51-1.26-3,0-7.38,2.87-9,3.37-2,7.9.55,10.24,1.85,6.91,3.85,6.29,7.89,14.61,15.29,4.06,3.62,7.8,5.85,12.23,6.8,2.21.47,6.14,1.31,7.82-.68,2-2.41.22-8.33-3.33-10.22-4.54-2.42-10.84,2.32-12.3,3.42-13,9.79-16.34,35.67-7.14,41.8,5.88,3.91,16.85.72,22.43-5.78,4-4.63,6.69-12.71,3.64-15.84-1.57-1.61-4.59-1.84-6.7-.81-6.23,3-8.29,19-1,24.13,5.79,4.06,16.56.55,17.33-3.06a4.09,4.09,0,0,0-2.84-4.28c-1.44-.25-2.77,1.05-3.28,1.56-3.53,3.47-9.78,19.22-.49,30.09a23.06,23.06,0,0,0,27,5.59c1-.51,8.49-4.32,10.53-11.89,2-7.35-.89-15.17-.34-15.29.26-.06.65,1.8,1.36,3.06,3.47,6.17,20.6,8.52,30.92,0,7.6-6.26,10.41-17.49,7.14-28.2"/><path class="cls-9" d="M310.27,832.28c-1.18,1-8.38,6.8-17.71,5.12a21,21,0,0,1-10.83-5.8c-7.6-7.16-9.21-18.05-7.14-25.49.62-2.21,1.89-6.8,5.78-9.17,1.28-.78,2.75-1.27,2.72-1.36s-6.54,3.52-13.59,3.06c-.47,0-6.67-.51-11.21-4.42-8.47-7.28-9.22-24.78,0-34.32,7.95-8.23,22.67-9.89,28.54-4.08,2.55,2.53,3.87,6.91,3.06,7.48-1.09.77-7.95-3.86-8.16-9.51-.25-6.43,8.21-11.94,15.22-11.35,3.57.3,8.82,2.35,10.25,6.94.6,2,.84,5.41-1,6.79-3.63,2.71-15.9-2.09-18.35-11.21-1.64-6.12,1.47-12.94,6.12-16.31,9.76-7.08,25.73,1.43,33,9.85,1.87,2.17,6.16,7.17,4.42,11.21a7.49,7.49,0,0,1-7.14,4.08,7,7,0,0,1-4.76-2.38c-2.66-3.51-.36-10.27,2.72-14.61,2.35-3.32,4.6-4.44,20.39-15.29,2-1.36,3.93-2.74,4.42-5.1.79-3.84-2.47-9.51-7.14-9.85-3.95-.28-7,3.37-8.16,6.12-1.95,4.59.17,9.42,2.38,14.27a53.1,53.1,0,0,0,6.24,10c3.5,4.94,13.68,19.3,10.07,31.45-.38,1.27-2.12,7.13-6.46,8.5-3.44,1.08-4.76-6.16-7.27.12,0,0-1.9,4.07,3.87,9.73a15.8,15.8,0,0,0,7.8,4.37c4.62,1,8.81-.71,26.18-11.5,8.39-5.21,9.74-6.27,13.25-7.14,7.48-1.85,17.28-1,18.69,3.06.85,2.44-1.3,6.05-4.06,7.3-5.37,2.43-13.7-3.81-17.69-9.3-1.22-1.67-1.79-2.94-5-7.58-3.78-5.42-4.67-6.06-5.17-6.39-3.62-2.37-9.75-3-13.25.34a7.9,7.9,0,0,0-2.38,6.12c.43,3.8,4.19,6.48,7.48,6.8,1.51.14,3.69-.13,7.82-3.4,3.43-2.72,11.26-8.92,13.22-20.22.79-4.58,1.79-10.34-1.67-15.12-4.76-6.59-15.31-7.67-22.43-4.08-.69.35-9.79,5.1-8.83,12.23.47,3.44,3.22,7.06,6.46,7.48,5.81.76,13.69-8.69,11.55-16.65-1.13-4.23-5.15-8.25-9.51-8.5-6-.35-10.4,6.65-11.55,5.78-1.46-1.11,8-10.53,6.12-20.05-1.54-7.91-10.27-12.85-16-14.61-1-.3-10.6-3.11-19.71,2-2.2,1.24-7.72,4.36-8.83,9.85-.45,2.23-.1,4.44.34,7.14.76,4.7,2.28,8.06,2,8.16s-1.37-3.14-3.06-5.1c-5.69-6.61-25.37-7.06-33.64,4.76-6.9,9.86-1.8,22.42-1.36,23.45"/><path class="cls-7" d="M187.84,616c-5.58,10.19,22.92,17.83,30,18.34s11.43.88,11.56-.61-10.35-5.13-19.17-11.21S192,608.34,187.84,616Z"/><path class="cls-7" d="M266.15,684.16c-5.2-9.37-7.81-20.15-9.3-20.16s-1.55,4.37-1.73,11.44,4.66,36.16,15.34,31.6C278.45,703.63,271.35,693.53,266.15,684.16Z"/><path class="cls-4" d="M219.85,645.84c-4,1.54-17.87,5.37-29.79,4.56-7.46-.5-18.73-1.58-17.38-13.1,1.27-10.88,14.56-7,29,0s27-.12,27.64,3.37C229.55,641.78,224,644.23,219.85,645.84Z"/><path class="cls-4" d="M250,663.38c3.41,1-4.84,12.75.67,27.83s8.1,28.68-2.86,28.89c-11.59.22-11.57-11.09-11.35-18.57.36-11.94,5.51-25.35,7.44-29.2C245.89,668.31,248.86,663.06,250,663.38Z"/><path class="cls-10" d="M166.22,670.58c3.47,9,12.6,7,26.33,1.59s25.66-11.32,35.35-19.09c3.06-2.46,4.78-4.25,3.92-5.18-1-1.1-13.17,4.63-17.18,6.18-9.79,3.79-20.45,4.28-29.34,3.88C166.27,657.12,165.17,667.85,166.22,670.58Z"/><path class="cls-10" d="M228.44,705.52c.47-8.9,2-19.45,6.71-28.83,1.93-3.84,8.82-15.39,7.82-16.5-.84-1-2.79.59-5.53,3.4-8.68,8.89-15.75,20.19-22.44,33.33s-9.59,22-1,26.36C216.65,724.59,227.43,724.54,228.44,705.52Z"/><path class="cls-6" d="M196.9,702.52c11.24-10.67,18.64-21.44,28.76-33.62,6.08-7.3,12.4-12.46,10.87-14.18s-7.31,4.1-15.17,9.44c-13.11,8.88-24.54,15.2-36.26,25.36C171.83,701,167.46,707.69,172.28,713S184.16,714.62,196.9,702.52Z"/><path class="cls-10" d="M216.08,603.38c3.35-3.68,2.32-10.08-1.69-12.47A8,8,0,0,0,205.3,592c-3.39,3-4,9.11-.3,12.26A8.2,8.2,0,0,0,216.08,603.38Z"/><path class="cls-11" d="M456.79,841.2l-9.32,7-7.26,7.05c-16.85,2.68-22.24-1.75-30.39-11.78,9.78,3.87,14.22,2.74,20.59-4.11C442.88,835.65,448.52,836.34,456.79,841.2Z"/><path class="cls-11" d="M517.68,844.87c-13.42-3.28-16.94-.37-22.06,5.42-6.27,5-11.62,5.44-22.54-3.06a46.82,46.82,0,0,1,20.78-14.44C507.55,831.77,512.89,837.31,517.68,844.87Z"/><path class="cls-12" d="M464.44,836.11c-3.93-14.43-26.7-25.27-2.21-44.94C454.8,809.48,484.73,810.12,464.44,836.11Z"/><path class="cls-12" d="M465.49,889.94l-.89,8.34,8.83-6.86,2.95-8.24-1.86-9.31-4.41-6.77-6.48-6.64-2.43-7.39c-5.87,6.28-7.45,10.64-4.43,21.28Z"/><path class="cls-13" d="M470.6,898.06c.61-.4,14.28-9.63,13.41-23.67-.09-1.61-.59-9.76-6-14.49a36.25,36.25,0,0,0-6.48-4.57c-3.61-1.86-6.5-3.35-8.95-2.66-4.94,1.41-8.51,11.81-6.35,20.52,2.34,9.41,10.3,12.88,9,20.34-.57,3.35-2.69,5.13-2.22,5.51.88.74,9.8-4.54,12.27-14a21.58,21.58,0,0,0-2.77-16.68c-2.2-3.43-6.67-4.39-9.53-9.94a17,17,0,0,1-1.13-2.65,19.28,19.28,0,0,1,.3-12.28"/><path class="cls-13" d="M502.86,862.57a4.43,4.43,0,0,0,3.62,2,4.22,4.22,0,0,0,3.69-3.16,5,5,0,0,0-2.69-5.39c-3.31-1.65-8.78,1.33-9.7,5.43-.69,3.11,1.49,5.79,2.12,6.58.19.23,3.23,4,8,3.79a11.05,11.05,0,0,0,7.94-18.29,10.69,10.69,0,0,0-5.49-3.22,12.4,12.4,0,0,0-8.14,1.08c-4.49,2-3.93,4.4-7.84,6.49-5.52,3-12.1,1.19-12.11,1.53a22.07,22.07,0,0,0,2.9.58,15.46,15.46,0,0,1,8.59,5.74c4.78,6.68,1.59,15,.56,17.67a22.86,22.86,0,0,1-23.74,14.69"/><path class="cls-13" d="M444.94,887a3.26,3.26,0,0,0,.21,2.39c.88,1.46,3.18,1.71,4.51,1,2-1.12,2.37-4.84.85-7.16-1.64-2.52-4.87-2.5-5.19-2.48a7.26,7.26,0,0,0-5.54,3.26c-2.55,3.71-.66,8.27-.37,9,.2.47,2.67,6.16,8.34,6.69,4.89.45,8.15-3.3,8.66-3.88a8.18,8.18,0,0,0,2.33-4.5c.08-.65.19-2.39-2.06-6.32s-3.09-3.48-4.74-6.54a18,18,0,0,1-2.36-8.75c0-2.71.71-4.57.42-4.66s-1.32,3.1-2.95,5.43c-3.51,5-10.62,6.4-14.37,6.32-15-.31-23.27-25.52-21.73-26.59,1.38-1,12.59,16.39,23.3,15.55a24.27,24.27,0,0,0,8.62-2.42,31.64,31.64,0,0,0,5.46-3.88h0c9.05-7.6,9.45-16.52,9.45-16.52a24.87,24.87,0,0,0-13.17-6.16,22.44,22.44,0,0,0-11.5,1.76c-5.5,2.36-5.48,5-9.79,6.26-6.84,2-12.44-3-13.27-1.67-1,1.51,5.88,9.48,15.38,12.29a19.64,19.64,0,0,0,10.1.68,17.94,17.94,0,0,0,8.81-4.45c1.72-1.65,4.3-4.93,6.06-6.05a18.27,18.27,0,0,1,3.25-1.57l.1,0c1.45-.49,6.22-2.11,8.37-.46a26.85,26.85,0,0,0,2.53,1.92,14.26,14.26,0,0,0,5.69,1.56c4.89,0,17.58-15.92,28.56-14.85,4.58.45,10.94,4,13.37,6.14.39.34.81.75.81.75,2.09,2,4.86,5.64,4.15,6.69-.83,1.24-5.34-2.89-11-2.39-7.32.65-8.1,8.36-15.44,10.35-9.26,2.52-20.74-6.27-20.15-10.52.26-1.86,2.72-2.27,5.6-7.05a29.22,29.22,0,0,0,2-4.09c2.17-4.75,8.61-9.73,15.64-10.2,10.7-.71,18.25,9.38,20.5,13.69a10.55,10.55,0,0,0,.88,1.71c.51-.17-1-18.78-11.28-24.15-5.1-2.67-11.7-1.74-16.06.51-6.55,3.38-9.59,10.6-10.36,10.14-.57-.34,2.22-3.58,1.51-7.31-1-5.22-7.7-5.17-10.25-10.88-1.88-4.22-1.2-10.91,3.17-13.83s10.71-.57,14,2.6c2.93,2.83,5.73,8.38,3.31,12.46a7.42,7.42,0,0,1-7.09,3.56c-3.72-.52-6.53-4.38-6.08-7.32a3.67,3.67,0,0,1,1.87-2.8c1.3-.55,3.07.05,4.34,1.56"/><path class="cls-13" d="M452,815.57a22.05,22.05,0,0,1,.11-13c2.39-7.13,8.68-12.32,10.11-11.45,1,.63-1.51,3.68-.74,8.5.82,5.09,4.3,5.73,7.56,12.23,1.31,2.62,3.57,7.11,2.8,12.37-.92,6.37-5.78,10.37-7.69,11.77C463.82,827.93,455.07,825.88,452,815.57Zm10.13,27.88a13.57,13.57,0,0,0,2-7.41"/><path class="cls-13" d="M461.37,836.85c-1.11-.41-14.94-5.81-17.92-19.59-.14-.68-2.66-13.19,4.32-20.26,3.55-3.6,8.81-5,8.5-6-.23-.69-3.06-.4-4.58-.13-5.69,1-17.37,6-19.31,18.08-1.68,10.41,4.88,19.73,10.07,21.86.47.2,2.43,1,2.34,1.26s-3.67-.66-8.64-.16a15.77,15.77,0,0,0-4.71,1.08,14.72,14.72,0,0,0-4,2.54c-1.52,1.34-1.52,1.89-2.47,2.71a8.54,8.54,0,0,1-7.23,1.39c-4.88-1.35-8.38-8.85-5.95-14.67S422,816,426.25,818.81c3.07,2,4.8,7.48,2.38,10.57-1.9,2.43-6.33,3.39-8.34,1.4a4.28,4.28,0,0,1-.51-5.29,4.33,4.33,0,0,1,3.47-1.49"/><circle class="cls-14" cx="498.2" cy="795.73" r="4"/><circle class="cls-14" cx="509.13" cy="881.24" r="4"/><circle class="cls-14" cx="412.68" cy="811.76" r="4"/><circle class="cls-14" cx="430.48" cy="895.9" r="4"/><path class="cls-18" d="M565.7,777.48l33,114,26-76.58Z"/><path class="cls-19" d="M763.44,763.3l-9.75,69.58,68.77-55.35Z"/><path class="cls-20" d="M565.7,777.48l-49.2,126,82.17-12Z"/><path class="cls-20" d="M753.69,832.88l-54.79-56L685,869.23Z"/><path class="cls-21" d="M763.44,763.3,698.9,776.87l54.79,56Z"/><path class="cls-18" d="M763.44,763.3,859.5,720l-37,57.53Z"/><path class="cls-19" d="M565.7,777.48l-22.49,57.61L510.5,773.56Z"/><path class="cls-21" d="M685,869.23l-86.31,22.22,11.61-34.53Z"/><path class="cls-19" d="M698.9,776.87l-74.26,38-14.21,41.91L685,869.23Z"/><path class="cls-22" d="M596.89,797.18l27.75,17.69,74.26-38-133.2.61Z"/><polygon class="cls-13" points="510.5 773.56 565.7 777.48 698.9 776.87 763.44 763.3 859.5 720 822.46 777.53 753.69 832.88 684.98 869.23 598.67 891.45 516.5 903.5 543.21 835.09 510.5 773.56"/><path class="cls-20" d="M195.17,586.5,157.5,590l-1-17Z"/><path class="cls-23" d="M195.17,586.5l-48.67-17,11.5-23Z"/><path class="cls-21" d="M195.17,586.5,167.77,557l13.73-8.52Z"/><polygon class="cls-13" points="195.17 586.5 181.5 548.5 167.78 557.02 158 546.5 146.5 569.5 156.54 573.01 157.5 590 195.17 586.5"/><path class="cls-23" d="M390.33,844.67l-13.66,37.19L389.5,885Z"/><path class="cls-19" d="M390.33,844.67,350,866l13.27,8.08Z"/><path class="cls-21" d="M356,882l34.33-37.31L373.5,890.5Z"/><polygon class="cls-8" points="390.33 844.67 389.5 885 376.67 881.86 373.5 890.5 356 881.98 363.27 874.08 350 866 390.33 844.67"/><path class="cls-21" d="M177.57,740l65.5-.44-21.56,67.38Z"/><path class="cls-24" d="M177.57,740l65.5-.44-21.56,67.38"/><path class="cls-19" d="M215.83,761.36,177.57,740l8.2,41.44Z"/><path class="cls-24" d="M215.83,761.36,177.57,740l8.2,41.44"/><path class="cls-23" d="M225.33,755l-3.82,51.93-35.74-25.5Z"/><polygon class="cls-13" points="221.51 806.94 243.07 739.56 177.57 740 185.77 781.44 221.51 806.94"/><path class="cls-20" d="M167,605l-20.17,90.67L147.5,599Z"/><path class="cls-21" d="M122,598.5l24.83,97.17L96,611Z"/><path class="cls-23" d="M147.5,599l-.67,96.67L122,598.5Z"/><polygon class="cls-13" points="146.83 695.67 167 605 147.5 599 122 598.5 96 611 146.83 695.67"/><line class="cls-8" x1="213.45" y1="533.82" x2="218.95" y2="530.32"/><path class="cls-17" d="M893,438.5H500.5L511,452h8.5v27.15L498.5,499a60.59,60.59,0,0,0-7.5-10c2.61-7.27,4-12.5,3.5-20s-5.09-16-12.5-23-20-10.44-26.5-8-6.45,2.32-15,9.5L450,459c11.11-10.52,21-9,26.5-3s4.5,11,3.5,16-5.5,10-16.5,14.5l9,12.5c2.94-1,4.58-2.67,7.5-4a57.24,57.24,0,0,1,8.5,12c3.33,8.46,2.5,16.45-2.5,21.5s-12,6-24,0S439,507,439,507l-1.5,11.5s14.5,17.21,21.5,22,14.5,9.48,27,6.5,20.5-21,17-36l16.5-13.94V541l14.5,9V452h30.5v89l14.5,9V452h56.5v9.5c-11.64-1-18.5-1-26.5,5.5s-8,14.5-7,21,4.76,10.23,7.89,13.39l.11.11c-11,3.81-15.5,8-15.5,15S603,532,603,532s5,5.5,10.5,7.5,11.12,1.07,17.5-2c19.12-9,27.24-11.92,32.5-10,12.5,5.5,17.5,22,2,33.5-5.33,3.24-10.87,4.12-17,1.5-7-3-14.44-8.23-21.5-14-12.27-7.85-20.5-7-33.5.5s-23,25.28-27,49c17.88-24.4,28.78-35.36,53.5-38.5,13.32-.27,36,13.5,36,13.5s11.5,5,20.5-1.5,6.07-20,4.5-26c-3.79-14.51-6-18.92-10-25-7.85-8.14-13.55-9.73-27.5-4-13,6.4-17.5,9.5-27,12.5s-15.5-2.5-11-11,16.5-7.5,31-8.5,20.5-10.5,22-16-1.5-14-2.5-17.5,4-5.5,6-3.5a20.78,20.78,0,0,1,5.5,13l9-11.5c-3.28-6.53-4.85-9.06-7-11-5.46-4.75-9-3.5-13,1.5s-3.14,5.11-6.5,5.5V452h39.5v21.5l-3.5,3,2.5,8c11.51-6.62,23-10.36,29-11.5s21.78-.44,24.5,8.5V493c-9.21-5.33-14.76-6.86-25.5-6.5-13.2,1.85-19.21,5.11-28,14-5.32,7.09-8,10-7,20.5,1.5,6,2.5,9,7,13.5,9.5,7.5,16,9,28,7.5S742,532,742,532v5l13,7V484.5c-1.35-10.43-5-16-11.5-19.5-14.66-7.89-24.4-5.17-39.5,0V452H849.5v15.5H807l-4.5,11c14.5,7,22,19,19,30S802,521,792,508.5,778,484,774,471l-9.5,3.5c5.47,15,7,23.86,18.5,39.5s30.5,18,41.5,7.5c4.69-5.25,6.32-8.42,7.5-14.5,1.5-11.5-5.34-20.41-14-30.5h31.5V541l14.5,9V452h36.5ZM642.5,493a39.5,39.5,0,0,1-16,11c-5.93,1.8-10,0-12.18-2.31-2.76-3-4-9.69-1.32-16.69s10.76-15.1,18.88-17.3,15.73,3.3,16.53,9.54S645.88,489,642.5,493Zm92.14,25.4a59.41,59.41,0,0,1-25,10c-8.61,1.51-14.4,0-16.5-1.31-4-2.5-3-8,0-12.5s14-13.5,25.5-16,23,3.5,24,8S738.64,515.66,734.64,518.4Z"/></svg>